<?xml version="1.0" encoding="UTF-8" standalone="no"?><!DOCTYPE svg PUBLIC "-//W3C//DTD SVG 1.1//EN" "http://www.w3.org/Graphics/SVG/1.1/DTD/svg11.dtd"><svg width="100%" height="100%" viewBox="0 0 3578 1211" version="1.1" xmlns="http://www.w3.org/2000/svg" xmlns:xlink="http://www.w3.org/1999/xlink" xml:space="preserve" xmlns:serif="http://www.serif.com/" style="fill-rule:evenodd;clip-rule:evenodd;stroke-linejoin:round;stroke-miterlimit:2;"><g transform="matrix(37.0761,0,0,45.4227,-13733.8,-21982)"><text x="402.675px" y="502.488px" style="font-family:'Bibroze-Regular', 'Bibroze';font-size:12px;fill:#05080d;">a</text><text x="409.755px" y="502.488px" style="font-family:'Arial-Black', 'Arial Black', sans-serif;font-weight:900;font-size:12px;fill:#05080d;">ppV<tspan x="434.582px 442.586px " y="502.488px 502.488px ">an</tspan>t</text><text x="455.916px" y="502.488px" style="font-family:'CanduRounded-Regular', 'Candu Rounded';font-size:12px;fill:#05080d;">i</text><g transform="matrix(12,0,0,12,466.98,502.488)"></g><text x="458.976px" y="502.488px" style="font-family:'Arial-Black', 'Arial Black', sans-serif;font-weight:900;font-size:12px;fill:#05080d;">x</text></g><rect x="1284.72" y="668.066" width="10.446" height="119.869" style="fill:#fff;"/><rect x="1291.15" y="729.464" width="72.239" height="58.47" style="fill:#fff;"/><rect x="1359.01" y="668.066" width="10.446" height="119.869" style="fill:#fff;"/><path d="M219.506,1182.93c-2.711,15.778 -16.459,27.783 -33.011,27.783l-158.806,-0c-7.344,-0 -14.387,-2.917 -19.579,-8.11c-5.193,-5.192 -8.11,-12.235 -8.11,-19.579l0,-667.845l0.145,0c0.116,-284.358 231.013,-515.184 515.398,-515.184c284.384,0 515.282,230.826 515.398,515.184l0.181,0l-0,666.743c0,7.636 -3.033,14.959 -8.433,20.358c-5.399,5.4 -12.722,8.433 -20.358,8.433l-166.753,-0c-6.654,-0 -13.035,-2.643 -17.74,-7.348c-4.705,-4.705 -7.348,-11.087 -7.348,-17.741l-0,-247.627c-0.328,0.229 -0.656,0.458 -0.985,0.687l0,-374.736c0.435,-6.636 0.656,-13.331 0.656,-20.078c0,-6.747 -0.221,-13.443 -0.656,-20.079l0,-8.612l-0.687,0c-14.287,-151.79 -140.752,-270.681 -294.436,-270.681c-153.683,-0 -280.148,118.891 -294.435,270.681l-0.441,0l0,5.151c-0.598,7.767 -0.902,15.618 -0.902,23.54c-0,7.921 0.304,15.772 0.902,23.539l0,615.521Z" style="fill:#e5382f;"/></svg>